<?xml version="1.0" encoding="utf-8"?>
<svg xmlns="http://www.w3.org/2000/svg" width="49" height="49" class="segno"><path fill="#fff" d="M0 0h49v49h-49z"/><path class="qrline" stroke="#000" d="M4 4.5h7m1 0h1m1 0h3m2 0h1m1 0h3m3 0h1m6 0h1m3 0h7m-41 1h1m5 0h1m3 0h1m10 0h1m3 0h2m3 0h1m1 0h1m1 0h1m5 0h1m-41 1h1m1 0h3m1 0h1m1 0h1m2 0h2m1 0h3m2 0h2m1 0h1m1 0h2m1 0h2m1 0h3m1 0h1m1 0h3m1 0h1m-41 1h1m1 0h3m1 0h1m5 0h1m2 0h2m2 0h1m8 0h2m1 0h1m2 0h1m1 0h3m1 0h1m-41 1h1m1 0h3m1 0h1m1 0h1m2 0h1m2 0h3m3 0h1m2 0h1m1 0h1m2 0h1m1 0h3m1 0h1m1 0h3m1 0h1m-41 1h1m5 0h1m2 0h3m6 0h1m2 0h2m1 0h1m1 0h1m2 0h2m1 0h1m1 0h1m5 0h1m-41 1h7m1 0h1m1 0h1m1 0h1m1 0h1m1 0h1m1 0h1m1 0h1m1 0h1m1 0h1m1 0h1m1 0h1m1 0h1m1 0h1m1 0h7m-33 1h3m1 0h1m2 0h2m1 0h1m1 0h1m1 0h3m1 0h3m-24 1h2m2 0h1m1 0h1m5 0h3m3 0h4m2 0h1m1 0h1m2 0h1m1 0h1m1 0h1m1 0h1m-39 1h4m6 0h3m1 0h1m2 0h1m3 0h5m3 0h1m3 0h2m-37 1h1m5 0h3m3 0h1m1 0h1m1 0h2m3 0h1m1 0h1m1 0h4m3 0h3m-34 1h4m2 0h1m3 0h1m1 0h1m1 0h5m6 0h1m1 0h1m1 0h3m3 0h2m1 0h2m-41 1h1m1 0h1m1 0h5m1 0h2m3 0h1m1 0h3m1 0h1m3 0h1m2 0h1m3 0h1m1 0h2m-32 1h1m4 0h2m3 0h2m2 0h3m1 0h3m1 0h1m2 0h4m1 0h4m2 0h1m-39 1h5m3 0h2m1 0h2m1 0h1m3 0h1m1 0h2m2 0h2m1 0h1m2 0h2m1 0h5m-40 1h2m2 0h2m3 0h2m6 0h1m3 0h1m1 0h4m1 0h1m1 0h1m2 0h1m3 0h3m-36 1h6m1 0h1m4 0h1m1 0h1m1 0h6m1 0h3m1 0h1m1 0h1m1 0h1m2 0h1m1 0h1m-41 1h2m2 0h2m1 0h1m2 0h1m1 0h2m1 0h1m1 0h2m2 0h1m1 0h1m2 0h3m2 0h8m1 0h1m-41 1h5m1 0h1m1 0h1m1 0h2m2 0h1m1 0h1m3 0h1m1 0h2m2 0h2m1 0h3m1 0h4m3 0h1m-38 1h2m2 0h2m1 0h1m6 0h2m2 0h1m1 0h2m2 0h1m3 0h1m1 0h1m2 0h2m1 0h1m-40 1h3m1 0h1m1 0h1m1 0h2m2 0h2m4 0h2m1 0h2m3 0h2m1 0h1m3 0h1m4 0h3m-41 1h2m1 0h3m4 0h1m1 0h2m1 0h5m3 0h1m1 0h1m1 0h2m1 0h2m3 0h2m1 0h1m-39 1h2m1 0h2m1 0h1m2 0h3m1 0h1m1 0h1m2 0h2m2 0h1m1 0h1m2 0h1m1 0h2m1 0h2m3 0h2m-38 1h4m2 0h1m4 0h2m4 0h1m5 0h1m2 0h1m2 0h5m-34 1h1m4 0h1m2 0h1m1 0h3m2 0h1m1 0h1m2 0h2m3 0h3m2 0h5m1 0h1m1 0h1m-40 1h1m6 0h2m5 0h1m3 0h2m1 0h1m2 0h1m1 0h2m1 0h3m2 0h4m2 0h1m-40 1h3m1 0h2m3 0h1m1 0h1m5 0h2m2 0h2m2 0h3m1 0h1m1 0h1m1 0h1m4 0h1m-39 1h1m2 0h2m1 0h1m1 0h6m1 0h1m1 0h2m4 0h2m1 0h2m1 0h2m1 0h1m2 0h4m-38 1h7m1 0h1m1 0h1m1 0h7m3 0h4m1 0h1m1 0h1m5 0h3m-40 1h1m1 0h3m2 0h1m1 0h1m4 0h2m3 0h3m1 0h1m1 0h2m4 0h1m1 0h5m2 0h1m-41 1h3m2 0h3m2 0h8m1 0h4m3 0h2m1 0h1m1 0h1m1 0h1m1 0h1m2 0h1m1 0h1m-41 1h1m3 0h2m1 0h2m2 0h3m1 0h2m2 0h1m5 0h4m1 0h1m1 0h1m1 0h1m1 0h2m1 0h1m-40 1h1m2 0h2m1 0h3m1 0h1m1 0h1m3 0h2m1 0h2m1 0h4m3 0h1m2 0h9m-33 1h1m1 0h5m1 0h1m5 0h1m1 0h1m2 0h1m1 0h2m1 0h1m3 0h1m1 0h1m-39 1h7m5 0h9m1 0h3m1 0h4m1 0h2m1 0h1m1 0h3m-39 1h1m5 0h1m1 0h5m1 0h1m2 0h2m2 0h1m3 0h1m5 0h2m3 0h2m2 0h1m-41 1h1m1 0h3m1 0h1m2 0h1m1 0h5m4 0h2m2 0h1m2 0h2m1 0h7m-37 1h1m1 0h3m1 0h1m2 0h1m2 0h1m2 0h2m1 0h1m1 0h3m4 0h2m1 0h2m3 0h1m1 0h4m-41 1h1m1 0h3m1 0h1m2 0h1m1 0h9m3 0h2m1 0h14m-40 1h1m5 0h1m3 0h1m2 0h3m2 0h1m4 0h2m1 0h1m3 0h1m2 0h1m2 0h3m1 0h1m-41 1h7m3 0h1m1 0h6m3 0h2m4 0h1m1 0h1m1 0h1m1 0h6"/></svg>
